<?xml version="1.0" encoding="utf-8"?>
<!-- Generator: Adobe Illustrator 16.0.0, SVG Export Plug-In . SVG Version: 6.00 Build 0)  -->
<!DOCTYPE svg PUBLIC "-//W3C//DTD SVG 1.1//EN" "http://www.w3.org/Graphics/SVG/1.1/DTD/svg11.dtd">
<svg version="1.1" id="Layer_1" xmlns="http://www.w3.org/2000/svg" xmlns:xlink="http://www.w3.org/1999/xlink" x="0px" y="0px"
	 width="200px" height="200px" viewBox="0 0 200 200" enable-background="new 0 0 200 200" xml:space="preserve">
<g id="sHjqMc.tif">
	<g>
		<path fill="#02AABB" d="M38.445,28.687c0,18.6,0,37.2,0,55.8c0.148,0.216,0.365,0.411,0.437,0.649
			c3.419,11.492,10.682,16.917,22.681,16.919c16.862,0.003,33.723,0.044,50.584-0.053c2.152-0.013,3.493,0.709,4.821,2.305
			c6.702,8.058,13.483,16.049,20.315,23.994c0.603,0.701,1.775,0.912,2.684,1.352c0.423-0.927,1.162-1.836,1.212-2.782
			c0.157-2.999,0.06-6.013,0.06-9.021c0-5.168,0-10.338,0-15.795c5.284,0,10.271,0.023,15.26-0.005
			c11.975-0.069,21.545-8.755,21.801-20.67c0.358-16.669,0.299-33.357,0.008-50.03c-0.17-9.743-7.051-17.658-16.446-20.106
			c-0.493-0.128-0.948-0.403-1.422-0.609c-34.647,0-69.294,0-103.94,0c-2.794,1.181-5.772,2.055-8.344,3.604
			C42.747,17.496,40.055,22.773,38.445,28.687z"/>
	</g>
</g>
<text transform="matrix(1 0 0 1 89.1543 79.6855)" fill="#FFFFFF" font-family="'OpenSans'" font-size="70" letter-spacing="-10">1</text>
</svg>
