<?xml version="1.0" encoding="utf-8"?>
<!-- Generator: Adobe Illustrator 16.0.0, SVG Export Plug-In . SVG Version: 6.00 Build 0)  -->
<!DOCTYPE svg PUBLIC "-//W3C//DTD SVG 1.1 Tiny//EN" "http://www.w3.org/Graphics/SVG/1.1/DTD/svg11-tiny.dtd">
<svg version="1.1" baseProfile="tiny" id="Layer_1" xmlns="http://www.w3.org/2000/svg" xmlns:xlink="http://www.w3.org/1999/xlink"
	 x="0px" y="0px" width="200px" height="200px" viewBox="0 0 200 200" xml:space="preserve">
<g id="sHjqMc.tif">
	<g>
		<path fill="#02AABB" d="M38.445,25.478c0,16.874,0,33.747,0,50.622c0.135,0.195,0.332,0.373,0.396,0.589
			c3.103,10.426,9.691,15.347,20.577,15.35c15.297,0.003,30.594,0.04,45.889-0.048c1.954-0.011,3.171,0.643,4.375,2.09
			c6.08,7.31,12.232,14.56,18.431,21.767c0.546,0.637,1.609,0.828,2.435,1.227c0.384-0.841,1.054-1.666,1.1-2.523
			c0.144-2.722,0.053-5.455,0.053-8.184c0-4.688,0-9.378,0-14.329c4.796,0,9.319,0.021,13.844-0.005
			c10.864-0.063,19.547-7.942,19.779-18.752c0.324-15.123,0.271-30.262,0.007-45.388c-0.154-8.838-6.396-16.019-14.92-18.241
			c-0.446-0.116-0.86-0.365-1.29-0.553c-31.433,0-62.864,0-94.296,0c-2.535,1.071-5.237,1.865-7.57,3.271
			C42.348,15.325,39.906,20.113,38.445,25.478z"/>
	</g>
</g>
<text transform="matrix(1 0 0 1 84.4492 71.7446)" fill="#FFFFFF" font-family="'OpenSans'" font-size="63.5047">5</text>
</svg>
